<svg width="278" height="103" viewBox="0 0 278 103" fill="none" xmlns="http://www.w3.org/2000/svg">
<rect x="0.5" y="0.5" width="277" height="102" rx="24.5" stroke="black"/>
<path d="M28.54 44V20H35.9346C37.458 20 38.7627 20.3125 39.8486 20.9375C40.9424 21.5625 41.7822 22.418 42.3682 23.5039C42.9541 24.5898 43.2471 25.8281 43.2471 27.2187C43.2471 28.5937 42.9541 29.8242 42.3682 30.9102C41.7822 31.9961 40.9424 32.8555 39.8486 33.4883C38.7627 34.1133 37.4619 34.4258 35.9463 34.4258H29.5713V33.0664H35.9111C37.1455 33.0664 38.2002 32.8164 39.0752 32.3164C39.9502 31.8086 40.6221 31.1172 41.0908 30.2422C41.5596 29.3594 41.7939 28.3516 41.7939 27.2187C41.7939 26.0781 41.5596 25.0664 41.0908 24.1836C40.6221 23.3008 39.9463 22.6094 39.0635 22.1094C38.1885 21.6094 37.1338 21.3594 35.8994 21.3594H30.0049V44H28.54ZM48.875 44V20H50.3398V31.3086H64.8008V20H66.2656V44H64.8008V32.668H50.3398V44H48.875ZM92.2959 32C92.2959 34.4766 91.8662 36.6406 91.0068 38.4922C90.1475 40.3359 88.9521 41.7695 87.4209 42.793C85.8975 43.8164 84.1396 44.3281 82.1475 44.3281C80.1475 44.3281 78.3818 43.8164 76.8506 42.793C75.3271 41.7617 74.1357 40.3242 73.2764 38.4805C72.417 36.6289 71.9873 34.4687 71.9873 32C71.9873 29.5234 72.417 27.3633 73.2764 25.5195C74.1436 23.6758 75.3389 22.2422 76.8623 21.2187C78.3857 20.1875 80.1475 19.6719 82.1475 19.6719C84.1396 19.6719 85.8975 20.1836 87.4209 21.207C88.9521 22.2305 90.1475 23.668 91.0068 25.5195C91.8662 27.3633 92.2959 29.5234 92.2959 32ZM90.8662 32C90.8662 29.7734 90.4912 27.8438 89.7412 26.2109C88.999 24.5781 87.9717 23.3164 86.6592 22.4258C85.3467 21.5273 83.8428 21.0781 82.1475 21.0781C80.4521 21.0781 78.9482 21.5234 77.6357 22.4141C76.3232 23.2969 75.292 24.5586 74.542 26.1992C73.7998 27.832 73.4287 29.7656 73.4287 32C73.4287 34.2109 73.7959 36.1367 74.5303 37.7773C75.2725 39.4102 76.2998 40.6758 77.6123 41.5742C78.9248 42.4727 80.4365 42.9219 82.1475 42.9219C83.8428 42.9219 85.3467 42.4766 86.6592 41.5859C87.9717 40.6875 88.999 39.4219 89.7412 37.7891C90.4912 36.1562 90.8662 34.2266 90.8662 32ZM95.4277 21.3594V20H112.244V21.3594H104.568V44H103.104V21.3594H95.4277ZM135.673 32C135.673 34.4766 135.243 36.6406 134.384 38.4922C133.524 40.3359 132.329 41.7695 130.798 42.793C129.274 43.8164 127.517 44.3281 125.524 44.3281C123.524 44.3281 121.759 43.8164 120.228 42.793C118.704 41.7617 117.513 40.3242 116.653 38.4805C115.794 36.6289 115.364 34.4687 115.364 32C115.364 29.5234 115.794 27.3633 116.653 25.5195C117.521 23.6758 118.716 22.2422 120.239 21.2187C121.763 20.1875 123.524 19.6719 125.524 19.6719C127.517 19.6719 129.274 20.1836 130.798 21.207C132.329 22.2305 133.524 23.668 134.384 25.5195C135.243 27.3633 135.673 29.5234 135.673 32ZM134.243 32C134.243 29.7734 133.868 27.8438 133.118 26.2109C132.376 24.5781 131.349 23.3164 130.036 22.4258C128.724 21.5273 127.22 21.0781 125.524 21.0781C123.829 21.0781 122.325 21.5234 121.013 22.4141C119.7 23.2969 118.669 24.5586 117.919 26.1992C117.177 27.832 116.806 29.7656 116.806 32C116.806 34.2109 117.173 36.1367 117.907 37.7773C118.649 39.4102 119.677 40.6758 120.989 41.5742C122.302 42.4727 123.813 42.9219 125.524 42.9219C127.22 42.9219 128.724 42.4766 130.036 41.5859C131.349 40.6875 132.376 39.4219 133.118 37.7891C133.868 36.1562 134.243 34.2266 134.243 32Z" fill="black"/>
<path d="M118.356 68.4023H113.224C113.13 67.7383 112.938 67.1484 112.649 66.6328C112.36 66.1094 111.989 65.6641 111.536 65.2969C111.083 64.9297 110.56 64.6484 109.966 64.4531C109.38 64.2578 108.743 64.1602 108.056 64.1602C106.813 64.1602 105.731 64.4687 104.81 65.0859C103.888 65.6953 103.173 66.5859 102.665 67.7578C102.157 68.9219 101.903 70.3359 101.903 72C101.903 73.7109 102.157 75.1484 102.665 76.3125C103.181 77.4766 103.899 78.3555 104.821 78.9492C105.743 79.543 106.81 79.8398 108.021 79.8398C108.7 79.8398 109.329 79.75 109.907 79.5703C110.493 79.3906 111.013 79.1289 111.466 78.7852C111.919 78.4336 112.294 78.0078 112.591 77.5078C112.896 77.0078 113.106 76.4375 113.224 75.7969L118.356 75.8203C118.224 76.9219 117.892 77.9844 117.36 79.0078C116.837 80.0234 116.13 80.9336 115.239 81.7383C114.356 82.5352 113.302 83.168 112.075 83.6367C110.856 84.0977 109.478 84.3281 107.938 84.3281C105.798 84.3281 103.884 83.8437 102.196 82.875C100.517 81.9062 99.1885 80.5039 98.2119 78.668C97.2432 76.832 96.7588 74.6094 96.7588 72C96.7588 69.3828 97.251 67.1562 98.2354 65.3203C99.2197 63.4844 100.556 62.0859 102.243 61.125C103.931 60.1562 105.829 59.6719 107.938 59.6719C109.329 59.6719 110.618 59.8672 111.806 60.2578C113.001 60.6484 114.06 61.2187 114.981 61.9687C115.903 62.7109 116.653 63.6211 117.231 64.6992C117.817 65.7773 118.192 67.0117 118.356 68.4023ZM144.05 72C144.05 74.6172 143.554 76.8437 142.562 78.6797C141.577 80.5156 140.233 81.918 138.53 82.8867C136.835 83.8477 134.929 84.3281 132.812 84.3281C130.679 84.3281 128.765 83.8437 127.069 82.875C125.374 81.9062 124.034 80.5039 123.05 78.668C122.065 76.832 121.573 74.6094 121.573 72C121.573 69.3828 122.065 67.1562 123.05 65.3203C124.034 63.4844 125.374 62.0859 127.069 61.125C128.765 60.1562 130.679 59.6719 132.812 59.6719C134.929 59.6719 136.835 60.1562 138.53 61.125C140.233 62.0859 141.577 63.4844 142.562 65.3203C143.554 67.1562 144.05 69.3828 144.05 72ZM138.905 72C138.905 70.3047 138.651 68.875 138.144 67.7109C137.644 66.5469 136.937 65.6641 136.022 65.0625C135.108 64.4609 134.038 64.1602 132.812 64.1602C131.585 64.1602 130.515 64.4609 129.601 65.0625C128.687 65.6641 127.976 66.5469 127.468 67.7109C126.968 68.875 126.718 70.3047 126.718 72C126.718 73.6953 126.968 75.125 127.468 76.2891C127.976 77.4531 128.687 78.3359 129.601 78.9375C130.515 79.5391 131.585 79.8398 132.812 79.8398C134.038 79.8398 135.108 79.5391 136.022 78.9375C136.937 78.3359 137.644 77.4531 138.144 76.2891C138.651 75.125 138.905 73.6953 138.905 72ZM167.883 60V84H163.5L153.059 68.8945H152.883V84H147.809V60H152.262L162.621 75.0937H162.832V60H167.883ZM171.161 64.1836V60H190.872V64.1836H183.524V84H178.509V64.1836H171.161ZM194.118 84V60H210.29V64.1836H199.192V69.9023H209.458V74.0859H199.192V79.8164H210.337V84H194.118ZM227.344 66.9023C227.25 65.957 226.848 65.2227 226.137 64.6992C225.426 64.1758 224.461 63.9141 223.242 63.9141C222.414 63.9141 221.715 64.0312 221.145 64.2656C220.574 64.4922 220.137 64.8086 219.832 65.2148C219.535 65.6211 219.387 66.082 219.387 66.5977C219.371 67.0273 219.461 67.4023 219.656 67.7227C219.859 68.043 220.137 68.3203 220.488 68.5547C220.84 68.7812 221.246 68.9805 221.707 69.1523C222.168 69.3164 222.66 69.457 223.184 69.5742L225.34 70.0898C226.387 70.3242 227.348 70.6367 228.223 71.0273C229.098 71.418 229.855 71.8984 230.496 72.4687C231.137 73.0391 231.633 73.7109 231.984 74.4844C232.344 75.2578 232.527 76.1445 232.535 77.1445C232.527 78.6133 232.152 79.8867 231.41 80.9648C230.676 82.0352 229.613 82.8672 228.223 83.4609C226.84 84.0469 225.172 84.3398 223.219 84.3398C221.281 84.3398 219.594 84.043 218.156 83.4492C216.727 82.8555 215.609 81.9766 214.805 80.8125C214.008 79.6406 213.59 78.1914 213.551 76.4648H218.461C218.516 77.2695 218.746 77.9414 219.152 78.4805C219.566 79.0117 220.117 79.4141 220.805 79.6875C221.5 79.9531 222.285 80.0859 223.16 80.0859C224.02 80.0859 224.766 79.9609 225.398 79.7109C226.039 79.4609 226.535 79.1133 226.887 78.668C227.238 78.2227 227.414 77.7109 227.414 77.1328C227.414 76.5937 227.254 76.1406 226.934 75.7734C226.621 75.4062 226.16 75.0937 225.551 74.8359C224.949 74.5781 224.211 74.3437 223.336 74.1328L220.723 73.4766C218.699 72.9844 217.102 72.2148 215.93 71.168C214.758 70.1211 214.176 68.7109 214.184 66.9375C214.176 65.4844 214.563 64.2148 215.344 63.1289C216.133 62.043 217.215 61.1953 218.59 60.5859C219.965 59.9766 221.527 59.6719 223.277 59.6719C225.059 59.6719 226.613 59.9766 227.941 60.5859C229.277 61.1953 230.316 62.043 231.059 63.1289C231.801 64.2148 232.184 65.4727 232.207 66.9023H227.344ZM235.034 64.1836V60H254.745V64.1836H247.397V84H242.382V64.1836H235.034Z" fill="black"/>
</svg>
